<svg width="76" height="76" viewBox="0 0 76 76" fill="none" xmlns="http://www.w3.org/2000/svg">
<path fill-rule="evenodd" clip-rule="evenodd" d="M6 38C6 20.3269 20.3269 6 38 6C55.6731 6 70 20.3269 70 38C70 55.6731 55.6731 70 38 70C20.3269 70 6 55.6731 6 38ZM38 0C17.0132 0 0 17.0132 0 38C0 58.9868 17.0132 76 38 76C58.9868 76 76 58.9868 76 38C76 17.0132 58.9868 0 38 0ZM38 19.6667C33.02 19.6667 32.3967 19.6867 30.4417 19.7767H30.44C28.49 19.8667 27.1567 20.1767 25.99 20.6283C24.7675 21.0891 23.6601 21.8108 22.745 22.7433C21.8119 23.6589 21.0895 24.7668 20.6283 25.99C20.1767 27.1567 19.865 28.49 19.7767 30.4433C19.6883 32.3967 19.6667 33.02 19.6667 38C19.6667 42.9783 19.6867 43.6017 19.7767 45.56C19.8667 47.51 20.1767 48.8433 20.6283 50.01C21.0889 51.2331 21.8106 52.3411 22.7433 53.2567C23.6597 54.1888 24.7682 54.9099 25.9917 55.37C27.1583 55.8233 28.4917 56.135 30.4417 56.2233C32.3967 56.3117 33.02 56.3333 38 56.3333C42.98 56.3333 43.6033 56.3133 45.56 56.2233C47.51 56.1333 48.8433 55.8233 50.01 55.37C51.2317 54.91 52.34 54.19 53.2567 53.2567C54.1888 52.3403 54.91 51.2318 55.37 50.0083C55.8233 48.8417 56.135 47.5083 56.2233 45.5583C56.3117 43.6033 56.3333 42.98 56.3333 38C56.3333 33.0217 56.3133 32.3983 56.2233 30.44C56.1333 28.49 55.8233 27.1567 55.37 25.99C54.91 24.7667 54.19 23.66 53.2567 22.745C52.34 21.8117 51.2317 21.09 50.01 20.6283C48.8433 20.1767 47.51 19.865 45.5567 19.7767C43.6033 19.6883 42.98 19.6667 38 19.6667ZM38 22.97C42.895 22.97 43.475 22.9883 45.4083 23.0767C47.1967 23.1583 48.1667 23.4567 48.8133 23.7083C49.6095 24.002 50.3299 24.4701 50.9217 25.0783C51.5633 25.72 51.9583 26.3317 52.2917 27.1867C52.5433 27.8333 52.8417 28.8033 52.9233 30.5917C53.0117 32.525 53.03 33.105 53.03 38C53.03 42.895 53.0117 43.475 52.9233 45.4083C52.8417 47.1967 52.5433 48.1667 52.2917 48.8133C51.9983 49.6083 51.53 50.33 50.9217 50.9217C50.28 51.5633 49.6683 51.9583 48.8133 52.2917C48.1667 52.5433 47.1967 52.8417 45.4083 52.9233C43.475 53.0117 42.8967 53.03 38 53.03C33.1033 53.03 32.525 53.0117 30.5917 52.9233C28.8033 52.8417 27.8333 52.5433 27.1867 52.2917C26.3917 51.9983 25.67 51.53 25.0783 50.9217C24.47 50.33 24.0017 49.6083 23.7083 48.8133C23.4567 48.1667 23.1583 47.1967 23.0767 45.4083C22.9883 43.475 22.97 42.895 22.97 38C22.97 33.105 22.9883 32.525 23.0767 30.5917C23.1583 28.8033 23.4567 27.8333 23.7083 27.1867C24.002 26.3905 24.4701 25.6701 25.0783 25.0783C25.72 24.4367 26.3317 24.0417 27.1867 23.7083C27.8333 23.4567 28.8033 23.1583 30.5917 23.0767C32.525 22.9883 33.105 22.97 38 22.97ZM39.7782 43.8595C38.4223 44.2695 36.9661 44.196 35.6583 43.6517C34.823 43.3053 34.0749 42.7781 33.4679 42.1079C32.8608 41.4377 32.4099 40.6412 32.1476 39.7759C31.8853 38.9105 31.8181 37.9977 31.9509 37.1033C32.0836 36.2088 32.4131 35.3549 32.9155 34.6031C33.4179 33.8512 34.0808 33.2201 34.8563 32.7552C35.6319 32.2903 36.5009 32.0031 37.4008 31.9144C38.3007 31.8256 39.2091 31.9375 40.0606 32.2419C40.912 32.5464 41.6854 33.0358 42.325 33.675C43.3283 34.675 43.9534 35.9922 44.0934 37.4018C44.2334 38.8115 43.8797 40.2259 43.0927 41.4037C42.3057 42.5815 41.1341 43.4495 39.7782 43.8595ZM34.3938 29.2939C33.2505 29.7675 32.2117 30.4616 31.3367 31.3367C29.5694 33.1039 28.5766 35.5008 28.5766 38C28.5766 40.4992 29.5694 42.8961 31.3367 44.6633C33.1039 46.4306 35.5008 47.4234 38 47.4234C40.4992 47.4234 42.8961 46.4306 44.6633 44.6633C45.5384 43.7883 46.2325 42.7495 46.7061 41.6062C47.1796 40.4629 47.4234 39.2375 47.4234 38C47.4234 36.7625 47.1796 35.5371 46.7061 34.3938C46.2325 33.2505 45.5384 32.2117 44.6633 31.3367C43.7883 30.4616 42.7495 29.7675 41.6062 29.2939C40.4629 28.8204 39.2375 28.5766 38 28.5766C36.7625 28.5766 35.5371 28.8204 34.3938 29.2939ZM50.0238 29.2566C49.9038 29.5295 49.7302 29.7754 49.5133 29.98C49.0916 30.3778 48.5315 30.5956 47.9518 30.5872C47.3721 30.5787 46.8185 30.3447 46.4086 29.9347C45.9987 29.5248 45.7646 28.9712 45.7562 28.3915C45.7477 27.8119 45.9655 27.2517 46.3633 26.83C46.5679 26.6132 46.8139 26.4396 47.0867 26.3195C47.3596 26.1994 47.6537 26.1353 47.9518 26.131C48.2498 26.1266 48.5458 26.1821 48.822 26.2942C49.0982 26.4063 49.3491 26.5726 49.5599 26.7834C49.7707 26.9942 49.9371 27.2451 50.0491 27.5213C50.1612 27.7976 50.2167 28.0935 50.2124 28.3915C50.208 28.6896 50.1439 28.9838 50.0238 29.2566Z" fill="#83BCB9"/>
</svg>
