<svg width="76" height="76" viewBox="0 0 76 76" fill="none" xmlns="http://www.w3.org/2000/svg">
<path fill-rule="evenodd" clip-rule="evenodd" d="M6 38C6 20.3269 20.3269 6 38 6C55.6731 6 70 20.3269 70 38C70 55.6731 55.6731 70 38 70C20.3269 70 6 55.6731 6 38ZM38 0C17.0132 0 0 17.0132 0 38C0 58.9868 17.0132 76 38 76C58.9868 76 76 58.9868 76 38C76 17.0132 58.9868 0 38 0ZM48.4187 33.2612L47.3075 40.5L41.4725 40.5012V58.0012H33.6475V40.5012H27.2887V33.2625H33.6475V27.745C33.6475 21.4687 37.3862 18.0012 43.1062 18.0012C45.8462 18.0012 48.7112 18.49 48.7112 18.49V24.6525H45.5537C42.4425 24.6525 41.4725 26.5837 41.4725 28.5637V33.2612H48.4187Z" fill="#83BCB9"/>
</svg>
