<svg width="76" height="76" viewBox="0 0 76 76" fill="none" xmlns="http://www.w3.org/2000/svg">
<path fill-rule="evenodd" clip-rule="evenodd" d="M6 38C6 20.3269 20.3269 6 38 6C55.6731 6 70 20.3269 70 38C70 55.6731 55.6731 70 38 70C20.3269 70 6 55.6731 6 38ZM38 0C17.0132 0 0 17.0132 0 38C0 58.9868 17.0132 76 38 76C58.9868 76 76 58.9868 76 38C76 17.0132 58.9868 0 38 0ZM38 18C26.954 18 18 26.954 18 38V38.0001C18 49.046 26.954 58 38 58C49.046 58 58 49.046 58 38C58 26.954 49.046 18 38 18ZM31.9258 22.8008C30.3934 23.4137 28.9754 24.2516 27.7126 25.2736C28.5228 25.9299 29.3941 26.5071 30.3147 26.9971C30.5692 26.0998 30.8551 25.2539 31.1694 24.4681C31.4019 23.8868 31.6539 23.3286 31.9258 22.8008ZM21.7362 36.1819C22.0809 33.0636 23.3017 30.2094 25.147 27.871C26.4703 28.9829 27.9335 29.9189 29.5002 30.6545C29.2075 32.3942 29.0173 34.2517 28.9436 36.1819H21.7362ZM32.5828 36.1819C32.6448 34.6855 32.782 33.2537 32.9826 31.9102C34.6177 32.3331 36.3036 32.5475 38 32.5455C39.6964 32.5475 41.3823 32.3331 43.0174 31.9102C43.218 33.2537 43.3552 34.6855 43.4172 36.1819H32.5828ZM47.0564 36.1819C46.9827 34.2517 46.7925 32.3942 46.4998 30.6545C48.0665 29.9189 49.5297 28.9829 50.853 27.871C52.6983 30.2094 53.9191 33.0636 54.2638 36.1819H47.0564ZM45.6853 26.997C46.6059 26.507 47.4772 25.9299 48.2874 25.2736C47.0246 24.2516 45.6066 23.4137 44.0742 22.8008C44.3461 23.3287 44.5981 23.8868 44.8306 24.4681C45.1449 25.2539 45.4308 26.0998 45.6853 26.997ZM38.0023 28.9092C39.4516 28.9111 40.8916 28.7197 42.2845 28.3426C42.0386 27.4277 41.7599 26.5825 41.4544 25.8187C40.847 24.3003 40.1693 23.1936 39.5098 22.4963C38.8539 21.8027 38.3431 21.6364 38 21.6364C37.6569 21.6364 37.1461 21.8027 36.4902 22.4963C35.8307 23.1936 35.153 24.3003 34.5456 25.8187C34.2401 26.5825 33.9614 27.4277 33.7155 28.3426C35.1084 28.7197 36.5483 28.9111 37.9976 28.9092L38 30.7274L38.0023 28.9092ZM28.9436 39.8183H21.7362C22.0809 42.9365 23.3017 45.7906 25.147 48.129C26.4703 47.0171 27.9335 46.0811 29.5002 45.3455C29.2075 43.6058 29.0173 41.7484 28.9436 39.8183ZM30.3147 49.0029C29.3941 49.493 28.5228 50.0701 27.7126 50.7264C28.9754 51.7484 30.3934 52.5863 31.9257 53.1992C31.6539 52.6713 31.4019 52.1132 31.1694 51.5319C30.8551 50.7461 30.5692 49.9002 30.3147 49.0029ZM33.7155 47.6574C35.1084 47.2803 36.5483 47.089 37.9976 47.0908H38.0023C39.4516 47.089 40.8916 47.2803 42.2845 47.6574C42.0386 48.5723 41.7599 49.4175 41.4544 50.1813C40.847 51.6996 40.1693 52.8064 39.5098 53.5037C38.8539 54.1973 38.3431 54.3636 38 54.3636C37.6569 54.3636 37.1461 54.1973 36.4902 53.5037C35.8307 52.8064 35.153 51.6996 34.5456 50.1813C34.2401 49.4175 33.9614 48.5723 33.7155 47.6574ZM43.0174 44.0898C41.3823 43.6669 39.6964 43.4525 38 43.4545C36.3036 43.4525 34.6177 43.6669 32.9826 44.0898C32.782 42.7463 32.6448 41.3146 32.5828 39.8183H43.4172C43.3552 41.3146 43.218 42.7464 43.0174 44.0898ZM45.6853 49.003C45.4308 49.9002 45.1449 50.7461 44.8306 51.5319C44.5981 52.1132 44.3461 52.6713 44.0742 53.1992C45.6066 52.5863 47.0246 51.7484 48.2874 50.7264C47.4772 50.0701 46.6059 49.493 45.6853 49.003ZM50.8529 48.129C49.5296 47.0171 48.0665 46.0811 46.4998 45.3455C46.7925 43.6058 46.9827 41.7484 47.0564 39.8183H54.2638C53.9191 42.9365 52.6983 45.7906 50.8529 48.129Z" fill="#83BCB9"/>
</svg>
