<svg width="76" height="76" viewBox="0 0 76 76" fill="none" xmlns="http://www.w3.org/2000/svg">
<path fill-rule="evenodd" clip-rule="evenodd" d="M70 38C70 55.6731 55.6731 70 38 70C20.3269 70 6 55.6731 6 38C6 20.3269 20.3269 6 38 6C55.6731 6 70 20.3269 70 38ZM76 38C76 58.9868 58.9868 76 38 76C17.0132 76 0 58.9868 0 38C0 17.0132 17.0132 0 38 0C58.9868 0 76 17.0132 76 38ZM46.6126 16.875C46.612 19.2524 47.4753 21.5491 49.0418 23.3375C52.1584 26.9354 56.4668 26.7292 56.4668 26.7292V33.8104C52.9316 33.8165 49.4841 32.7101 46.6126 30.6479V45.0625C46.6126 52.2813 40.7689 58.125 33.573 58.125C26.8584 58.125 20.5334 52.6938 20.5334 45.0625C20.5334 37.225 27.4543 31.0833 35.3605 32.1375V39.3792C31.4418 38.1646 27.6376 41.1208 27.6376 45.0625C27.6376 48.3625 30.3418 51.0208 33.5959 51.0208C35.1347 51.0206 36.6133 50.4233 37.7204 49.3546C38.8275 48.286 39.4767 46.8294 39.5314 45.2917V16.875H46.6126Z" fill="#83BCB9"/>
</svg>
